<svg xmlns="http://www.w3.org/2000/svg" viewBox="0 0 96 96">
  <circle cx="48" cy="48" r="45" fill="#EDEFEA" stroke="#D3D8D2" stroke-width="2" />
  <svg x="15" y="15" width="66" height="66" viewBox="0 0 24 24" fill="none" stroke="#2657A8" stroke-width="2" stroke-linecap="round" stroke-linejoin="round">
    <path d="M6 4h-1a2 2 0 0 0 -2 2v3.5a5.5 5.5 0 0 0 11 0v-3.5a2 2 0 0 0 -2 -2h-1" /><path d="M8 15a6 6 0 1 0 12 0v-3" /><path d="M11 3v2" /><path d="M6 3v2" /><path d="M18 10a2 2 0 1 0 4 0a2 2 0 1 0 -4 0" />
  </svg>
</svg>
